<svg width="88" height="90" viewBox="0 0 88 90" fill="none" xmlns="http://www.w3.org/2000/svg">
<path d="M44 58.25C47.3152 58.25 50.4946 56.9067 52.8388 54.5156C55.183 52.1245 56.5 48.8815 56.5 45.5C56.5 42.1185 55.183 38.8755 52.8388 36.4844C50.4946 34.0933 47.3152 32.75 44 32.75C40.6848 32.75 37.5054 34.0933 35.1612 36.4844C32.817 38.8755 31.5 42.1185 31.5 45.5C31.5 48.8815 32.817 52.1245 35.1612 54.5156C37.5054 56.9067 40.6848 58.25 44 58.25ZM44 20C44.4144 20 44.8118 20.1679 45.1049 20.4668C45.3979 20.7657 45.5625 21.1711 45.5625 21.5938V27.9688C45.5625 28.3914 45.3979 28.7968 45.1049 29.0957C44.8118 29.3946 44.4144 29.5625 44 29.5625C43.5856 29.5625 43.1882 29.3946 42.8951 29.0957C42.6021 28.7968 42.4375 28.3914 42.4375 27.9688V21.5938C42.4375 21.1711 42.6021 20.7657 42.8951 20.4668C43.1882 20.1679 43.5856 20 44 20ZM44 61.4375C44.4144 61.4375 44.8118 61.6054 45.1049 61.9043C45.3979 62.2032 45.5625 62.6086 45.5625 63.0312V69.4062C45.5625 69.8289 45.3979 70.2343 45.1049 70.5332C44.8118 70.8321 44.4144 71 44 71C43.5856 71 43.1882 70.8321 42.8951 70.5332C42.6021 70.2343 42.4375 69.8289 42.4375 69.4062V63.0312C42.4375 62.6086 42.6021 62.2032 42.8951 61.9043C43.1882 61.6054 43.5856 61.4375 44 61.4375ZM69 45.5C69 45.9227 68.8354 46.3281 68.5424 46.627C68.2493 46.9258 67.8519 47.0938 67.4375 47.0938H61.1875C60.7731 47.0938 60.3757 46.9258 60.0826 46.627C59.7896 46.3281 59.625 45.9227 59.625 45.5C59.625 45.0773 59.7896 44.6719 60.0826 44.373C60.3757 44.0742 60.7731 43.9062 61.1875 43.9062H67.4375C67.8519 43.9062 68.2493 44.0742 68.5424 44.373C68.8354 44.6719 69 45.0773 69 45.5ZM28.375 45.5C28.375 45.9227 28.2104 46.3281 27.9174 46.627C27.6243 46.9258 27.2269 47.0938 26.8125 47.0938H20.5625C20.1481 47.0938 19.7507 46.9258 19.4576 46.627C19.1646 46.3281 19 45.9227 19 45.5C19 45.0773 19.1646 44.6719 19.4576 44.373C19.7507 44.0742 20.1481 43.9062 20.5625 43.9062H26.8125C27.2269 43.9062 27.6243 44.0742 27.9174 44.373C28.2104 44.6719 28.375 45.0773 28.375 45.5ZM61.6781 27.4683C61.971 27.7672 62.1356 28.1725 62.1356 28.5951C62.1356 29.0177 61.971 29.423 61.6781 29.7219L57.2594 34.2322C57.1141 34.3802 56.9417 34.4975 56.7519 34.5775C56.5622 34.6575 56.3589 34.6986 56.1536 34.6984C55.739 34.6981 55.3414 34.5299 55.0484 34.2306C54.9034 34.0824 54.7883 33.9065 54.7099 33.713C54.6315 33.5195 54.5912 33.3121 54.5913 33.1027C54.5916 32.6798 54.7566 32.2743 55.05 31.9754L59.4688 27.4683C59.7618 27.1695 60.1591 27.0017 60.5734 27.0017C60.9878 27.0017 61.3851 27.1695 61.6781 27.4683ZM32.95 56.771C33.2429 57.0699 33.4075 57.4752 33.4075 57.8978C33.4075 58.3204 33.2429 58.7257 32.95 59.0246L28.5312 63.5317C28.2366 63.822 27.8419 63.9826 27.4322 63.979C27.0225 63.9754 26.6306 63.8078 26.3409 63.5123C26.0512 63.2168 25.8869 62.817 25.8833 62.3992C25.8798 61.9813 26.0373 61.5787 26.3219 61.2781L30.7406 56.771C31.0336 56.4722 31.431 56.3044 31.8453 56.3044C32.2596 56.3044 32.657 56.4722 32.95 56.771ZM61.6781 63.5317C61.3851 63.8305 60.9878 63.9983 60.5734 63.9983C60.1591 63.9983 59.7618 63.8305 59.4688 63.5317L55.05 59.0246C54.7654 58.724 54.6079 58.3214 54.6114 57.9035C54.615 57.4856 54.7793 57.0859 55.069 56.7904C55.3587 56.4949 55.7506 56.3273 56.1603 56.3237C56.57 56.32 56.9647 56.4807 57.2594 56.771L61.6781 61.2781C61.971 61.577 62.1356 61.9823 62.1356 62.4049C62.1356 62.8275 61.971 63.2328 61.6781 63.5317ZM32.95 34.2322C32.657 34.531 32.2596 34.6988 31.8453 34.6988C31.431 34.6988 31.0336 34.531 30.7406 34.2322L26.3219 29.7219C26.1726 29.5749 26.0536 29.399 25.9717 29.2046C25.8898 29.0101 25.8467 28.801 25.8449 28.5894C25.8431 28.3777 25.8827 28.1679 25.9612 27.972C26.0398 27.7761 26.1558 27.5982 26.3025 27.4486C26.4492 27.2989 26.6237 27.1806 26.8157 27.1004C27.0077 27.0203 27.2135 26.98 27.4209 26.9818C27.6284 26.9837 27.8334 27.0276 28.0241 27.1112C28.2147 27.1947 28.3871 27.3161 28.5312 27.4683L32.95 31.9754C33.0955 32.1235 33.211 32.2994 33.2897 32.493C33.3685 32.6866 33.409 32.8942 33.409 33.1038C33.409 33.3134 33.3685 33.521 33.2897 33.7146C33.211 33.9083 33.0955 34.0841 32.95 34.2322Z" fill="#FFC961"/>
</svg>
