<svg width="150" height="150" viewBox="0 0 150 150" fill="none" xmlns="http://www.w3.org/2000/svg">
<g clip-path="url(#clip0_17_87)">
<path d="M75.0062 30C55.0062 30 42.5062 40 37.5062 60C45.0062 50 53.7562 46.25 63.7562 48.75C69.4625 50.175 73.5375 54.3125 78.0563 58.9C85.4125 66.3625 93.9187 75 112.506 75C132.506 75 145.006 65 150.006 45C142.506 55 133.756 58.75 123.756 56.25C118.05 54.825 113.975 50.6875 109.456 46.1C102.106 38.6375 93.6 30 75.0062 30ZM37.5062 75C17.5062 75 5.00625 85 0.00624847 105C7.50625 95 16.2563 91.25 26.2563 93.75C31.9625 95.175 36.0375 99.3125 40.5562 103.9C47.9125 111.363 56.4187 120 75.0062 120C95.0062 120 107.506 110 112.506 90C105.006 100 96.2562 103.75 86.2562 101.25C80.55 99.825 76.475 95.6875 71.9562 91.1C64.6062 83.6375 56.1 75 37.5062 75Z" fill="#06B6D4"/>
</g>
<defs>
<clipPath id="clip0_17_87">
<rect width="150" height="150" fill="white"/>
</clipPath>
</defs>
</svg>
